<mxfile host="app.diagrams.net" modified="2021-11-22T17:26:58.851Z" agent="5.0 (Windows NT 10.0; Win64; x64) AppleWebKit/537.36 (KHTML, like Gecko) Chrome/96.0.4664.45 Safari/537.36" etag="iteq10viW6ewpoxw7KL2" version="15.8.3" type="github">
  <diagram id="EmkjScnBPKMGXcVBKyCI" name="Page-1">
    <mxGraphModel dx="1447" dy="827" grid="0" gridSize="10" guides="1" tooltips="1" connect="1" arrows="1" fold="1" page="1" pageScale="1" pageWidth="1169" pageHeight="827" background="none" math="0" shadow="0">
      <root>
        <mxCell id="0" />
        <mxCell id="1" parent="0" />
        <mxCell id="2Pvz_bqnGeRoUUYmAPV5-11" style="edgeStyle=orthogonalEdgeStyle;rounded=0;orthogonalLoop=1;jettySize=auto;html=1;exitX=0.5;exitY=0;exitDx=0;exitDy=0;entryX=0.5;entryY=1;entryDx=0;entryDy=0;endArrow=none;endFill=0;" edge="1" parent="1" source="2Pvz_bqnGeRoUUYmAPV5-6" target="2Pvz_bqnGeRoUUYmAPV5-7">
          <mxGeometry relative="1" as="geometry" />
        </mxCell>
        <mxCell id="2Pvz_bqnGeRoUUYmAPV5-45" style="edgeStyle=orthogonalEdgeStyle;rounded=0;orthogonalLoop=1;jettySize=auto;html=1;exitX=0.5;exitY=1;exitDx=0;exitDy=0;entryX=0.5;entryY=0;entryDx=0;entryDy=0;endArrow=none;endFill=0;" edge="1" parent="1" source="2Pvz_bqnGeRoUUYmAPV5-6" target="2Pvz_bqnGeRoUUYmAPV5-9">
          <mxGeometry relative="1" as="geometry" />
        </mxCell>
        <mxCell id="2Pvz_bqnGeRoUUYmAPV5-46" style="edgeStyle=orthogonalEdgeStyle;rounded=0;orthogonalLoop=1;jettySize=auto;html=1;exitX=0.25;exitY=1;exitDx=0;exitDy=0;entryX=0.5;entryY=0;entryDx=0;entryDy=0;endArrow=none;endFill=0;" edge="1" parent="1" source="2Pvz_bqnGeRoUUYmAPV5-6" target="2Pvz_bqnGeRoUUYmAPV5-8">
          <mxGeometry relative="1" as="geometry" />
        </mxCell>
        <mxCell id="2Pvz_bqnGeRoUUYmAPV5-51" style="edgeStyle=orthogonalEdgeStyle;rounded=0;orthogonalLoop=1;jettySize=auto;html=1;exitX=0;exitY=0.5;exitDx=0;exitDy=0;entryX=1;entryY=0.5;entryDx=0;entryDy=0;endArrow=none;endFill=0;" edge="1" parent="1" source="2Pvz_bqnGeRoUUYmAPV5-6" target="2Pvz_bqnGeRoUUYmAPV5-44">
          <mxGeometry relative="1" as="geometry" />
        </mxCell>
        <mxCell id="2Pvz_bqnGeRoUUYmAPV5-55" value="1" style="edgeLabel;html=1;align=center;verticalAlign=middle;resizable=0;points=[];" vertex="1" connectable="0" parent="2Pvz_bqnGeRoUUYmAPV5-51">
          <mxGeometry x="-0.7303" relative="1" as="geometry">
            <mxPoint as="offset" />
          </mxGeometry>
        </mxCell>
        <mxCell id="2Pvz_bqnGeRoUUYmAPV5-56" value="n" style="edgeLabel;html=1;align=center;verticalAlign=middle;resizable=0;points=[];" vertex="1" connectable="0" parent="2Pvz_bqnGeRoUUYmAPV5-51">
          <mxGeometry x="0.7041" relative="1" as="geometry">
            <mxPoint as="offset" />
          </mxGeometry>
        </mxCell>
        <mxCell id="2Pvz_bqnGeRoUUYmAPV5-6" value="Produto" style="whiteSpace=wrap;html=1;align=center;" vertex="1" parent="1">
          <mxGeometry x="1040" y="490" width="100" height="40" as="geometry" />
        </mxCell>
        <mxCell id="2Pvz_bqnGeRoUUYmAPV5-7" value="Nome" style="ellipse;whiteSpace=wrap;html=1;align=center;" vertex="1" parent="1">
          <mxGeometry x="1040" y="400" width="100" height="40" as="geometry" />
        </mxCell>
        <mxCell id="2Pvz_bqnGeRoUUYmAPV5-8" value="Código" style="ellipse;whiteSpace=wrap;html=1;align=center;fontStyle=4;" vertex="1" parent="1">
          <mxGeometry x="900" y="584" width="100" height="40" as="geometry" />
        </mxCell>
        <mxCell id="2Pvz_bqnGeRoUUYmAPV5-9" value="Categoria" style="ellipse;whiteSpace=wrap;html=1;align=center;" vertex="1" parent="1">
          <mxGeometry x="1040" y="584" width="100" height="40" as="geometry" />
        </mxCell>
        <mxCell id="2Pvz_bqnGeRoUUYmAPV5-16" style="edgeStyle=orthogonalEdgeStyle;rounded=0;orthogonalLoop=1;jettySize=auto;html=1;exitX=0.5;exitY=1;exitDx=0;exitDy=0;entryX=0.25;entryY=0;entryDx=0;entryDy=0;endArrow=none;endFill=0;" edge="1" parent="1" source="2Pvz_bqnGeRoUUYmAPV5-10" target="2Pvz_bqnGeRoUUYmAPV5-6">
          <mxGeometry relative="1" as="geometry" />
        </mxCell>
        <mxCell id="2Pvz_bqnGeRoUUYmAPV5-10" value="Preço" style="ellipse;whiteSpace=wrap;html=1;align=center;" vertex="1" parent="1">
          <mxGeometry x="900" y="400" width="100" height="40" as="geometry" />
        </mxCell>
        <mxCell id="2Pvz_bqnGeRoUUYmAPV5-18" style="edgeStyle=orthogonalEdgeStyle;rounded=0;orthogonalLoop=1;jettySize=auto;html=1;exitX=0.5;exitY=0;exitDx=0;exitDy=0;entryX=0.5;entryY=1;entryDx=0;entryDy=0;endArrow=none;endFill=0;" edge="1" parent="1" source="2Pvz_bqnGeRoUUYmAPV5-21" target="2Pvz_bqnGeRoUUYmAPV5-22">
          <mxGeometry relative="1" as="geometry" />
        </mxCell>
        <mxCell id="2Pvz_bqnGeRoUUYmAPV5-19" style="edgeStyle=orthogonalEdgeStyle;rounded=0;orthogonalLoop=1;jettySize=auto;html=1;exitX=0;exitY=0.5;exitDx=0;exitDy=0;entryX=1;entryY=0.5;entryDx=0;entryDy=0;endArrow=none;endFill=0;" edge="1" parent="1" source="2Pvz_bqnGeRoUUYmAPV5-21" target="2Pvz_bqnGeRoUUYmAPV5-23">
          <mxGeometry relative="1" as="geometry" />
        </mxCell>
        <mxCell id="2Pvz_bqnGeRoUUYmAPV5-20" style="edgeStyle=orthogonalEdgeStyle;rounded=0;orthogonalLoop=1;jettySize=auto;html=1;exitX=0.25;exitY=1;exitDx=0;exitDy=0;entryX=0.5;entryY=0;entryDx=0;entryDy=0;endArrow=none;endFill=0;" edge="1" parent="1" source="2Pvz_bqnGeRoUUYmAPV5-21" target="2Pvz_bqnGeRoUUYmAPV5-24">
          <mxGeometry relative="1" as="geometry">
            <Array as="points">
              <mxPoint x="205" y="550" />
              <mxPoint x="90" y="550" />
            </Array>
          </mxGeometry>
        </mxCell>
        <mxCell id="2Pvz_bqnGeRoUUYmAPV5-32" style="edgeStyle=orthogonalEdgeStyle;rounded=0;orthogonalLoop=1;jettySize=auto;html=1;exitX=0.75;exitY=1;exitDx=0;exitDy=0;entryX=0.5;entryY=0;entryDx=0;entryDy=0;endArrow=none;endFill=0;" edge="1" parent="1" source="2Pvz_bqnGeRoUUYmAPV5-21" target="2Pvz_bqnGeRoUUYmAPV5-30">
          <mxGeometry relative="1" as="geometry" />
        </mxCell>
        <mxCell id="2Pvz_bqnGeRoUUYmAPV5-47" style="edgeStyle=orthogonalEdgeStyle;rounded=0;orthogonalLoop=1;jettySize=auto;html=1;exitX=0.75;exitY=0;exitDx=0;exitDy=0;endArrow=none;endFill=0;" edge="1" parent="1" source="2Pvz_bqnGeRoUUYmAPV5-21" target="2Pvz_bqnGeRoUUYmAPV5-27">
          <mxGeometry relative="1" as="geometry" />
        </mxCell>
        <mxCell id="2Pvz_bqnGeRoUUYmAPV5-21" value="Cliente" style="whiteSpace=wrap;html=1;align=center;" vertex="1" parent="1">
          <mxGeometry x="180" y="490" width="100" height="40" as="geometry" />
        </mxCell>
        <mxCell id="2Pvz_bqnGeRoUUYmAPV5-22" value="Nome" style="ellipse;whiteSpace=wrap;html=1;align=center;" vertex="1" parent="1">
          <mxGeometry x="180" y="400" width="100" height="40" as="geometry" />
        </mxCell>
        <mxCell id="2Pvz_bqnGeRoUUYmAPV5-23" value="Código" style="ellipse;whiteSpace=wrap;html=1;align=center;fontStyle=4;" vertex="1" parent="1">
          <mxGeometry x="40" y="490" width="100" height="40" as="geometry" />
        </mxCell>
        <mxCell id="2Pvz_bqnGeRoUUYmAPV5-24" value="Status" style="ellipse;whiteSpace=wrap;html=1;align=center;" vertex="1" parent="1">
          <mxGeometry x="40" y="574" width="100" height="40" as="geometry" />
        </mxCell>
        <mxCell id="2Pvz_bqnGeRoUUYmAPV5-25" style="edgeStyle=orthogonalEdgeStyle;rounded=0;orthogonalLoop=1;jettySize=auto;html=1;exitX=0.5;exitY=1;exitDx=0;exitDy=0;entryX=0.25;entryY=0;entryDx=0;entryDy=0;endArrow=none;endFill=0;" edge="1" parent="1" source="2Pvz_bqnGeRoUUYmAPV5-26" target="2Pvz_bqnGeRoUUYmAPV5-21">
          <mxGeometry relative="1" as="geometry" />
        </mxCell>
        <mxCell id="2Pvz_bqnGeRoUUYmAPV5-26" value="Endereço" style="ellipse;whiteSpace=wrap;html=1;align=center;" vertex="1" parent="1">
          <mxGeometry x="40" y="400" width="100" height="40" as="geometry" />
        </mxCell>
        <mxCell id="2Pvz_bqnGeRoUUYmAPV5-27" value="Telefone" style="ellipse;whiteSpace=wrap;html=1;align=center;" vertex="1" parent="1">
          <mxGeometry x="320" y="400" width="100" height="40" as="geometry" />
        </mxCell>
        <mxCell id="2Pvz_bqnGeRoUUYmAPV5-30" value="Limite_crédito" style="ellipse;whiteSpace=wrap;html=1;align=center;" vertex="1" parent="1">
          <mxGeometry x="330" y="574" width="100" height="40" as="geometry" />
        </mxCell>
        <mxCell id="2Pvz_bqnGeRoUUYmAPV5-48" style="edgeStyle=orthogonalEdgeStyle;rounded=0;orthogonalLoop=1;jettySize=auto;html=1;exitX=0;exitY=0.5;exitDx=0;exitDy=0;entryX=1;entryY=0.5;entryDx=0;entryDy=0;endArrow=none;endFill=0;" edge="1" parent="1" source="2Pvz_bqnGeRoUUYmAPV5-36" target="2Pvz_bqnGeRoUUYmAPV5-21">
          <mxGeometry relative="1" as="geometry" />
        </mxCell>
        <mxCell id="2Pvz_bqnGeRoUUYmAPV5-49" value="1" style="edgeLabel;html=1;align=center;verticalAlign=middle;resizable=0;points=[];" vertex="1" connectable="0" parent="2Pvz_bqnGeRoUUYmAPV5-48">
          <mxGeometry x="0.8903" y="-2" relative="1" as="geometry">
            <mxPoint as="offset" />
          </mxGeometry>
        </mxCell>
        <mxCell id="2Pvz_bqnGeRoUUYmAPV5-50" value="n" style="edgeLabel;html=1;align=center;verticalAlign=middle;resizable=0;points=[];" vertex="1" connectable="0" parent="2Pvz_bqnGeRoUUYmAPV5-48">
          <mxGeometry x="-0.8834" relative="1" as="geometry">
            <mxPoint as="offset" />
          </mxGeometry>
        </mxCell>
        <mxCell id="2Pvz_bqnGeRoUUYmAPV5-36" value="Pedidos" style="whiteSpace=wrap;html=1;align=center;" vertex="1" parent="1">
          <mxGeometry x="605" y="490" width="100" height="40" as="geometry" />
        </mxCell>
        <mxCell id="2Pvz_bqnGeRoUUYmAPV5-43" style="edgeStyle=orthogonalEdgeStyle;rounded=0;orthogonalLoop=1;jettySize=auto;html=1;exitX=0.5;exitY=1;exitDx=0;exitDy=0;entryX=0.5;entryY=0;entryDx=0;entryDy=0;endArrow=none;endFill=0;" edge="1" parent="1" source="2Pvz_bqnGeRoUUYmAPV5-38" target="2Pvz_bqnGeRoUUYmAPV5-36">
          <mxGeometry relative="1" as="geometry" />
        </mxCell>
        <mxCell id="2Pvz_bqnGeRoUUYmAPV5-38" value="Número" style="ellipse;whiteSpace=wrap;html=1;align=center;fontStyle=4;" vertex="1" parent="1">
          <mxGeometry x="605" y="400" width="100" height="40" as="geometry" />
        </mxCell>
        <mxCell id="2Pvz_bqnGeRoUUYmAPV5-40" style="edgeStyle=orthogonalEdgeStyle;rounded=0;orthogonalLoop=1;jettySize=auto;html=1;exitX=0.5;exitY=1;exitDx=0;exitDy=0;entryX=0.25;entryY=0;entryDx=0;entryDy=0;endArrow=none;endFill=0;" edge="1" parent="1" source="2Pvz_bqnGeRoUUYmAPV5-41" target="2Pvz_bqnGeRoUUYmAPV5-36">
          <mxGeometry relative="1" as="geometry" />
        </mxCell>
        <mxCell id="2Pvz_bqnGeRoUUYmAPV5-41" value="Data" style="ellipse;whiteSpace=wrap;html=1;align=center;" vertex="1" parent="1">
          <mxGeometry x="465" y="400" width="100" height="40" as="geometry" />
        </mxCell>
        <mxCell id="2Pvz_bqnGeRoUUYmAPV5-52" style="edgeStyle=orthogonalEdgeStyle;rounded=0;orthogonalLoop=1;jettySize=auto;html=1;exitX=0;exitY=0.5;exitDx=0;exitDy=0;entryX=1;entryY=0.5;entryDx=0;entryDy=0;endArrow=none;endFill=0;" edge="1" parent="1" source="2Pvz_bqnGeRoUUYmAPV5-44" target="2Pvz_bqnGeRoUUYmAPV5-36">
          <mxGeometry relative="1" as="geometry" />
        </mxCell>
        <mxCell id="2Pvz_bqnGeRoUUYmAPV5-53" value="1" style="edgeLabel;html=1;align=center;verticalAlign=middle;resizable=0;points=[];" vertex="1" connectable="0" parent="2Pvz_bqnGeRoUUYmAPV5-52">
          <mxGeometry x="0.8175" relative="1" as="geometry">
            <mxPoint as="offset" />
          </mxGeometry>
        </mxCell>
        <mxCell id="2Pvz_bqnGeRoUUYmAPV5-54" value="n" style="edgeLabel;html=1;align=center;verticalAlign=middle;resizable=0;points=[];" vertex="1" connectable="0" parent="2Pvz_bqnGeRoUUYmAPV5-52">
          <mxGeometry x="-0.7263" y="2" relative="1" as="geometry">
            <mxPoint as="offset" />
          </mxGeometry>
        </mxCell>
        <mxCell id="2Pvz_bqnGeRoUUYmAPV5-59" style="edgeStyle=orthogonalEdgeStyle;rounded=0;orthogonalLoop=1;jettySize=auto;html=1;exitX=0.5;exitY=0;exitDx=0;exitDy=0;entryX=0.5;entryY=1;entryDx=0;entryDy=0;endArrow=none;endFill=0;" edge="1" parent="1" source="2Pvz_bqnGeRoUUYmAPV5-44" target="2Pvz_bqnGeRoUUYmAPV5-58">
          <mxGeometry relative="1" as="geometry" />
        </mxCell>
        <mxCell id="2Pvz_bqnGeRoUUYmAPV5-44" value="Quantidade" style="shape=associativeEntity;whiteSpace=wrap;html=1;align=center;" vertex="1" parent="1">
          <mxGeometry x="800" y="480" width="140" height="60" as="geometry" />
        </mxCell>
        <mxCell id="2Pvz_bqnGeRoUUYmAPV5-58" value="Quantidade" style="ellipse;whiteSpace=wrap;html=1;align=center;" vertex="1" parent="1">
          <mxGeometry x="757" y="391" width="100" height="40" as="geometry" />
        </mxCell>
      </root>
    </mxGraphModel>
  </diagram>
</mxfile>
